<?xml version="1.0" standalone="no"?>
<!DOCTYPE svg PUBLIC "-//W3C//DTD SVG 20010904//EN"
 "http://www.w3.org/TR/2001/REC-SVG-20010904/DTD/svg10.dtd">
<svg version="1.0" xmlns="http://www.w3.org/2000/svg"
 width="513.000000pt" height="513.000000pt" viewBox="0 0 513.000000 513.000000"
 preserveAspectRatio="xMidYMid meet">
<metadata>
Created by potrace 1.14, written by Peter Selinger 2001-2017
</metadata>
<g transform="translate(0.000000,513.000000) scale(0.100000,-0.100000)"
fill="#000000" stroke="none">
<path d="M2220 5023 c-19 -2 -73 -8 -120 -13 -649 -78 -1031 -366 -1410 -1062
-31 -57 -38 -79 -28 -83 45 -16 764 -225 773 -225 7 0 28 24 47 53 177 265
508 469 866 533 117 21 316 20 416 -1 280 -59 487 -226 572 -461 48 -130 54
-205 54 -645 l0 -409 -62 49 c-352 274 -792 406 -1243 372 -792 -61 -1373
-547 -1502 -1256 -24 -128 -23 -435 1 -570 74 -411 271 -706 628 -939 219
-143 464 -228 737 -255 531 -55 1050 112 1394 447 l57 56 0 -222 0 -222 750 0
750 0 0 410 0 410 -320 0 -320 0 0 1293 c0 1086 -2 1313 -15 1421 -97 831
-499 1220 -1355 1311 -122 13 -567 19 -670 8z m18 -2015 c15 -15 17 -430 2
-459 -6 -11 -21 -19 -35 -19 -14 0 -29 8 -35 19 -13 26 -13 426 0 452 12 21
50 25 68 7z m-874 -310 c47 -43 266 -329 266 -348 0 -23 -34 -43 -58 -35 -20
7 -282 338 -282 356 0 14 29 49 41 49 4 0 19 -10 33 -22z m1756 -3 c6 -8 10
-21 8 -30 -5 -24 -260 -343 -280 -350 -24 -8 -58 12 -58 34 0 10 62 95 137
190 140 175 162 193 193 156z m-550 -380 c360 -76 669 -307 859 -641 l44 -78
-38 -74 c-89 -173 -253 -353 -426 -468 -420 -280 -944 -277 -1365 7 -157 105
-326 292 -419 461 l-36 67 38 73 c142 271 423 512 713 611 66 23 174 47 265
61 59 9 292 -3 365 -19z m-962 -1497 c7 -7 12 -19 12 -28 0 -17 -172 -240
-195 -252 -17 -10 -43 0 -54 21 -12 21 -4 35 98 164 85 108 109 125 139 95z
m1340 -118 c51 -65 92 -128 92 -139 0 -22 -34 -45 -54 -38 -20 8 -196 238
-196 257 0 22 20 40 45 40 16 0 47 -33 113 -120z"/>
<path d="M2195 1953 c-119 -43 -218 -148 -250 -267 -26 -97 -18 -206 23 -289
39 -78 120 -158 199 -195 52 -24 70 -27 163 -27 98 0 110 2 171 32 85 42 154
111 193 193 29 60 31 73 31 175 0 101 -2 115 -29 170 -38 77 -114 153 -191
190 -52 26 -73 30 -160 33 -77 2 -112 -2 -150 -15z"/>
</g>
</svg>
