<?xml version="1.0" encoding="utf-8"?>
<!-- Generator: Adobe Illustrator 27.5.0, SVG Export Plug-In . SVG Version: 6.00 Build 0)  -->
<svg version="1.1" id="Capa_1" xmlns="http://www.w3.org/2000/svg" xmlns:xlink="http://www.w3.org/1999/xlink" x="0px" y="0px"
	 viewBox="0 0 48 48" style="enable-background:new 0 0 48 48;" xml:space="preserve">
<style type="text/css">
	.st0{fill:rgb(26,26,26);}
</style>
<path class="st0" d="M24,40.9c-0.8,0-1.5-0.2-2.1-0.7c-0.6-0.4-0.9-1-1-1.8h-1.5c-0.6-0.1-1-0.3-1.4-0.8c-0.3-0.5-0.5-0.9-0.5-1.4
	v-6.5c-2.2-1.3-3.9-3-5.1-5c-1.2-2.1-1.8-4.3-1.8-6.8c0-3.7,1.3-6.8,3.9-9.4c2.6-2.6,5.7-3.8,9.4-3.8c3.7,0,6.8,1.3,9.4,3.9
	s3.9,5.7,3.9,9.4c0,2.5-0.6,4.7-1.8,6.8c-1.2,2.1-2.9,3.7-5.1,5v6.5c0,0.4-0.2,0.9-0.5,1.4c-0.3,0.5-0.8,0.7-1.4,0.8h-1.5
	c-0.1,0.7-0.4,1.3-1,1.8C25.5,40.7,24.8,40.9,24,40.9z M19.8,36.4h8.4v-2.1h-8.4V36.4z M19.8,32.5h8.4v-2h-8.4V32.5z M19.3,28.3h3.7
	v-6.7l-4.4-4.4L20,16l4,4.1l4-4.1l1.3,1.3l-4.4,4.4v6.7h3.7c1.9-0.9,3.4-2.2,4.6-4.1c1.2-1.8,1.8-3.9,1.8-6.1c0-3.1-1.1-5.7-3.2-7.9
	C29.7,8.1,27.1,7,24,7c-3.1,0-5.7,1.1-7.8,3.2c-2.2,2.1-3.2,4.8-3.2,7.8c0,2.3,0.6,4.3,1.8,6.1C15.9,26.1,17.4,27.4,19.3,28.3z"/>
</svg>
