<?xml version="1.0" encoding="UTF-8"?><svg id="d" xmlns="http://www.w3.org/2000/svg" viewBox="0 0 1702.59 416.86"><path d="m1054.5,59.27c-5.49-6.96-8.23-15.14-8.23-24.54s2.78-17.32,8.36-24.28c5.57-6.96,13.18-10.44,22.83-10.44s17.71,3.48,23.2,10.44c5.49,6.96,8.23,15.23,8.23,24.81s-2.74,17.67-8.23,24.28c-5.33,6.62-13.06,9.92-23.2,9.92s-17.46-3.39-22.95-10.18Zm-322.3,10.18c10.14,0,17.88-3.3,23.2-9.92,5.49-6.61,8.23-14.71,8.23-24.28s-2.74-17.84-8.23-24.81c-5.49-6.96-13.22-10.44-23.2-10.44s-17.26,3.48-22.83,10.44c-5.57,6.96-8.36,15.06-8.36,24.28s2.74,17.58,8.23,24.54c5.49,6.79,13.14,10.18,22.95,10.18Zm680.99,115.28v149.61c0,10.97,1.16,18.45,3.49,22.46,2.33,4.01,5.74,6.01,10.23,6.01,9.31,0,20.21-2.52,32.68-7.57v47.52c-12.97,8-29.36,12.01-49.15,12.01-31.6,0-47.4-19.49-47.4-58.49v-171.55h-35.09l-.12,42.04h-42.91c-1.83-14.27-6.41-25.59-13.72-33.94-10.15-11.66-25.45-17.49-45.9-17.49-12.31,0-22.54,3.22-30.69,9.66-8.15,6.44-12.22,14.36-12.22,23.76,0,5.74,1.37,10.44,4.12,14.1,2.74,3.66,8.02,7.05,15.84,10.18,7.48,2.79,19.87,6.27,37.17,10.44,19.29,4.88,35.68,10.36,49.15,16.45,13.3,5.92,24.53,14.71,33.68,26.37,9.15,11.66,13.72,26.63,13.72,44.91s-4.41,32.55-13.22,45.43c-8.65,13.06-20.04,23.02-34.18,29.9-14.14,6.88-29.03,10.31-44.66,10.31-25.95,0-47.24-8.44-63.87-25.33v16.71h-166.06v-46.48h36.42v-178.08h-63.69l-79.83,224.55h-50.4l-77.84-224.55h-23.6v178.97h35.93v45.58h-122.25c-17.9,4.4-27.76,6.53-47.56,6.53-31.6,0-47.4-19.49-47.4-58.49v-171.55s-49.84-1.24-57.03-.83c-23.86,1.35-38.67,11.93-52.97,29.17-14.31,17.23-19.39,35.2-19.39,60.96l-.39,88.63h51.14l.25,45.68-269.46.29-.25-45.57h44.16l-26.69-81.62h-123.24l-26.94,81.62h42.41v45.57H0v-45.57h36.42L135.47,91.13h-44.41v-44.69h186.11l-.25,44.69h-42.66l94.3,271.93,66.63-.4.39-178.97h-36.42v-46.74h81.33v49.87c7.32-19.67,18.63-34.12,33.93-43.34,15.3-9.4,32.21-7.36,52.01-7.36,4.65,0,47.44.83,47.44.83v-56.66l50.15-42.04v98.7h238.55v46.74h-32.68l54.64,167.89,53.64-167.89h-35.93v-46.74h198.17v224.81h33.33v-46.74h46.4c.83,15.84,4.99,28.29,12.47,37.34,10.14,12.53,26.28,18.8,48.4,18.8,14.14,0,25.2-3.13,33.18-9.4,7.98-6.27,11.97-15.05,11.97-26.37,0-9.57-4.37-17.1-13.1-22.59-8.73-5.48-24.66-10.92-47.78-16.32-21.95-4.18-39.5-9.62-52.64-16.32-13.14-6.7-22.7-15.27-28.69-25.72-5.99-10.44-8.98-23.58-8.98-39.43,0-16.71,4.15-31.42,12.47-44.13,8.31-12.88,19.25-22.72,32.81-29.51,13.55-6.79,27.65-10.18,42.29-10.18,24.45,0,44.91,8.53,61.37,25.59v-19.84h79.12v-56.66l50.15-42.04v98.7h46.4v47.78h-46.4ZM228.03,236.01l-46.15-142.66-46.4,142.66h92.56Zm477.56-51.27h-35.16s-46.4,0-46.4,0v149.61c0,10.97-.01,20.6,2.32,24.6,2.33,4.01,6.93,7.53,11.56,8.22,9.22,1.38,18.45.54,30.93-4.52h36.42l.33-177.93Zm837.08,161.01c-4.38-4.37-6.57-9.68-6.57-15.93s2.18-11.57,6.55-15.95c4.37-4.38,9.68-6.57,15.93-6.57s11.57,2.18,15.95,6.55c4.38,4.37,6.57,9.68,6.57,15.93s-2.18,11.57-6.55,15.95c-4.37,4.38-9.68,6.57-15.93,6.57s-11.57-2.18-15.95-6.55Zm159.93,16.88v45.7h-84.08v-24.9c-18.96,19.17-42.5,28.75-70.6,28.75-23.95,0-44.66-7.48-62.12-22.46-17.46-14.97-26.2-35.47-26.2-61.48,0-17.46,4.32-32.73,12.97-45.82,8.65-13.09,20.12-23.06,34.43-29.91,14.3-6.84,29.27-10.27,44.91-10.27,25.28,0,47.32,8.05,66.11,24.13v-40.56c0-15.06-4.45-26.44-13.35-34.14-8.9-7.7-19.83-11.55-32.81-11.55s-24.41,3.12-36.3,9.37c-11.89,6.25-20.75,14.5-26.57,24.77l-44.41-13.09c8.15-16.08,16.8-28.84,25.95-38.25,9.15-9.58,20-16.47,32.56-20.67,12.56-4.19,27.82-6.29,45.78-6.29,22.95,0,41.62,3.21,56.01,9.63,14.39,6.42,24.99,16.65,31.81,30.68,6.82,14.03,10.23,32.35,10.23,54.94v131.44h35.68Zm-110.73-74.23c.55.44,1.22.66,1.88.66.88,0,1.75-.38,2.34-1.12l14.28-17.77c1.04-1.29.83-3.18-.46-4.22-1.29-1.04-3.18-.83-4.22.46l-14.28,17.77c-1.04,1.29-.83,3.18.46,4.22Zm-36.3-14.59c0,1.66,1.34,3,3,3h0c1.65,0,3-1.34,3-3l.03-22.82c0-1.66-1.34-3-3-3h0c-1.65,0-3,1.34-3,3l-.03,22.82Zm-48.11-3.78l14.15,17.88c.59.75,1.47,1.14,2.35,1.14.65,0,1.31-.21,1.86-.65,1.3-1.03,1.52-2.92.49-4.21l-14.15-17.88c-1.03-1.3-2.91-1.52-4.21-.49-1.3,1.03-1.52,2.92-.49,4.21Zm17.8,101.23c-1.3-1.03-3.19-.8-4.21.5l-9.44,11.97c-1.03,1.3-.8,3.19.5,4.21.55.43,1.2.64,1.85.64.89,0,1.77-.39,2.36-1.14l9.44-11.97c1.03-1.3.8-3.19-.5-4.21Zm80.13,13.08l-9.22-11.9c-1.02-1.31-2.9-1.55-4.21-.53-1.31,1.01-1.55,2.9-.53,4.21l9.22,11.9c.59.76,1.48,1.16,2.37,1.16.64,0,1.29-.21,1.84-.63,1.31-1.01,1.55-2.9.53-4.21Zm17.2-55.65c-5.99-12.67-14.71-22.82-26.16-30.44-11.45-7.62-24.02-11.42-37.71-11.42s-26.27,3.81-37.74,11.42c-11.47,7.62-20.26,17.76-26.36,30.44,6.1,12.67,14.88,22.82,26.33,30.44,11.45,7.62,24.02,11.42,37.71,11.42s26.27-3.81,37.74-11.42c11.47-7.62,20.2-17.76,26.19-30.44Z" style="fill:#fff;"/></svg>