<?xml version="1.0" encoding="utf-8"?>
<!-- Generator: Adobe Illustrator 27.5.0, SVG Export Plug-In . SVG Version: 6.00 Build 0)  -->
<svg version="1.1" id="Capa_1" xmlns="http://www.w3.org/2000/svg" xmlns:xlink="http://www.w3.org/1999/xlink" x="0px" y="0px"
	 viewBox="0 0 48 48" style="enable-background:new 0 0 48 48;" xml:space="preserve">
<style type="text/css">
	.st0{fill:rgb(26,26,26;}
</style>
<path class="st0" d="M23.8,42.8c-2.6,0-5-0.5-7.3-1.5c-2.3-1-4.2-2.3-6-4s-3.1-3.7-4-6S5.1,26.6,5.1,24c0-2.6,0.5-5.1,1.5-7.4
	c1-2.3,2.4-4.3,4.1-6c1.8-1.7,3.8-3,6.1-4c2.3-1,4.8-1.5,7.5-1.5c2.5,0,4.8,0.4,7,1.2c2.2,0.8,4.2,2,5.9,3.4
	c1.7,1.5,3.1,3.2,4.1,5.2c1,2,1.5,4.2,1.5,6.6c0,3.3-1,5.9-2.9,7.8c-1.9,1.9-4.5,2.9-7.8,2.9h-3c-0.9,0-1.7,0.3-2.4,1
	c-0.7,0.7-1,1.5-1,2.4c0,1,0.2,1.7,0.6,2.1c0.4,0.4,0.6,1,0.6,1.7c0,0.8-0.3,1.6-0.9,2.3C25.5,42.5,24.7,42.8,23.8,42.8z M12.5,25
	c0.5,0,1-0.2,1.4-0.6c0.4-0.4,0.6-0.9,0.6-1.5c0-0.6-0.2-1-0.6-1.5c-0.4-0.4-0.9-0.6-1.4-0.6c-0.6,0-1,0.2-1.5,0.6
	c-0.4,0.4-0.6,0.9-0.6,1.5c0,0.6,0.2,1,0.6,1.5C11.4,24.8,11.9,25,12.5,25z M18.7,16.7c0.5,0,1-0.2,1.4-0.6c0.4-0.4,0.6-0.9,0.6-1.5
	c0-0.6-0.2-1-0.6-1.5c-0.4-0.4-0.9-0.6-1.4-0.6c-0.6,0-1,0.2-1.5,0.6c-0.4,0.4-0.6,0.9-0.6,1.5c0,0.6,0.2,1,0.6,1.5
	C17.6,16.4,18.1,16.7,18.7,16.7z M29.1,16.7c0.5,0,1-0.2,1.4-0.6c0.4-0.4,0.6-0.9,0.6-1.5c0-0.6-0.2-1-0.6-1.5
	c-0.4-0.4-0.9-0.6-1.4-0.6c-0.6,0-1,0.2-1.5,0.6C27.2,13.5,27,14,27,14.6c0,0.6,0.2,1,0.6,1.5C28.1,16.4,28.5,16.7,29.1,16.7z
	 M35.5,25c0.5,0,1-0.2,1.4-0.6c0.4-0.4,0.6-0.9,0.6-1.5c0-0.6-0.2-1-0.6-1.5c-0.4-0.4-0.9-0.6-1.4-0.6c-0.6,0-1,0.2-1.5,0.6
	c-0.4,0.4-0.6,0.9-0.6,1.5c0,0.6,0.2,1,0.6,1.5C34.4,24.8,34.9,25,35.5,25z M23.7,40.6c0.4,0,0.7-0.1,0.9-0.2
	c0.2-0.1,0.3-0.4,0.3-0.7c0-0.5-0.2-0.9-0.7-1.3c-0.5-0.4-0.7-1.2-0.7-2.5c0-1.6,0.5-2.9,1.5-4c1-1.1,2.2-1.7,3.7-1.7h3.6
	c2.6,0,4.6-0.7,6.2-2.2c1.6-1.5,2.3-3.6,2.3-6.3c0-4.3-1.7-7.8-5-10.4c-3.3-2.6-7.1-3.9-11.4-3.9c-4.8,0-8.9,1.6-12.2,4.8
	C8.9,15.4,7.3,19.4,7.3,24c0,4.6,1.6,8.5,4.8,11.8C15.2,39,19.1,40.6,23.7,40.6z"/>
</svg>
